<svg width="40" height="40" viewBox="0 0 40 40" fill="none" xmlns="http://www.w3.org/2000/svg">
<g clip-path="url(#clip0_111_38380)">
<path d="M31.7889 36.0294L31.7645 36.0206C31.2104 35.82 30.9076 35.2208 31.0824 34.6579C34.0692 25.0411 34.0691 14.9588 31.0824 5.34208C30.9076 4.77934 31.2104 4.18004 31.7645 3.97942L31.7889 3.97063C32.5994 3.67628 33.1407 2.90844 33.1407 2.04608C33.1407 0.66624 31.8038 -0.31525 30.4859 0.0936124C26.7133 1.26404 21.9224 1.96459 16.7069 1.96459C11.4913 1.96459 6.70047 1.26404 2.92792 0.0936124C1.61003 -0.31525 0.273093 0.666161 0.273093 2.046C0.273093 2.90844 0.814348 3.6762 1.62494 3.97055L1.64925 3.97934C2.20337 4.17989 2.50619 4.77918 2.33137 5.342C-0.655299 14.9588 -0.655456 25.041 2.33137 34.6578C2.50619 35.2207 2.20337 35.82 1.64925 36.0205L1.62494 36.0293C0.814348 36.3237 0.273093 37.0914 0.273093 37.9538C0.273093 39.3337 1.61003 40.3152 2.92792 39.9063C6.70054 38.7359 11.4914 38.0353 16.7069 38.0353C21.9224 38.0353 26.7133 38.7359 30.4859 39.9063C31.8038 40.3152 33.1407 39.3337 33.1407 37.9538C33.1407 37.0915 32.5995 36.3237 31.7889 36.0294Z" fill="url(#paint0_linear_111_38380)"/>
<path d="M31.0824 5.34208C30.9076 4.77925 31.2104 4.18004 31.7645 3.97941L31.7888 3.97063C32.5994 3.67627 33.1407 2.90843 33.1407 2.04608C33.1407 0.666235 31.8037 -0.315255 30.4858 0.0936073C26.7132 1.26404 21.9224 1.96459 16.7068 1.96459C16.6807 1.96459 16.6546 1.96427 16.6284 1.96427V38.0358C16.6546 38.0358 16.6807 38.0355 16.7068 38.0355C21.9225 38.0355 26.7132 38.736 30.4858 39.9065C31.8037 40.3153 33.1407 39.3338 33.1407 37.954C33.1407 37.0916 32.5994 36.3238 31.7888 36.0294L31.7645 36.0207C31.2104 35.8201 30.9076 35.2208 31.0824 34.658C34.0692 25.0411 34.0691 14.9589 31.0824 5.34208Z" fill="url(#paint1_linear_111_38380)"/>
<path d="M33.2008 23.4155H0.212891C0.478381 27.1965 1.18332 30.9616 2.33132 34.6579C2.50615 35.2206 2.20332 35.82 1.6492 36.0205L1.62489 36.0293C0.814302 36.3237 0.273047 37.0914 0.273047 37.9539C0.273047 39.3337 1.60999 40.3152 2.92787 39.9064C6.7005 38.7359 11.4913 38.0354 16.7069 38.0354C21.9224 38.0354 26.7132 38.7359 30.4858 39.9064C31.8037 40.3152 33.1407 39.3337 33.1407 37.9539C33.1407 37.0915 32.5994 36.3237 31.7888 36.0293L31.7645 36.0205C31.2104 35.82 30.9076 35.2207 31.0824 34.6579C32.2304 30.9616 32.9353 27.1965 33.2008 23.4155Z" fill="url(#paint2_linear_111_38380)"/>
<path d="M12.6772 7.75757C12.6772 7.67373 12.6938 7.59071 12.7258 7.51325C12.7579 7.4358 12.805 7.36542 12.8642 7.30613C12.9235 7.24685 12.9939 7.19982 13.0714 7.16774C13.1488 7.13565 13.2318 7.11914 13.3157 7.11914H14.0393C14.2086 7.11914 14.371 7.1864 14.4907 7.30613C14.6105 7.42586 14.6777 7.58825 14.6777 7.75757C14.6777 7.92689 14.6105 8.08928 14.4907 8.20901C14.371 8.32874 14.2086 8.396 14.0393 8.396H13.3157C13.1464 8.396 12.984 8.32874 12.8642 8.20901C12.7445 8.08928 12.6772 7.92689 12.6772 7.75757Z" fill="url(#paint3_linear_111_38380)"/>
<path d="M11.0765 8.396H4.06079C3.89147 8.396 3.72908 8.32874 3.60936 8.20901C3.48963 8.08928 3.42236 7.92689 3.42236 7.75757C3.42236 7.58825 3.48963 7.42586 3.60936 7.30613C3.72908 7.1864 3.89147 7.11914 4.06079 7.11914H11.0765C11.2458 7.11914 11.4082 7.1864 11.5279 7.30613C11.6476 7.42586 11.7149 7.58825 11.7149 7.75757C11.7149 7.92689 11.6476 8.08928 11.5279 8.20901C11.4082 8.32874 11.2458 8.396 11.0765 8.396Z" fill="url(#paint4_linear_111_38380)"/>
<path d="M7.87577 10.7051H4.06079C3.89147 10.7051 3.72908 10.6378 3.60936 10.5181C3.48963 10.3984 3.42236 10.236 3.42236 10.0667C3.42236 9.89733 3.48963 9.73494 3.60936 9.61521C3.72908 9.49549 3.89147 9.42822 4.06079 9.42822H7.87577C8.0451 9.42822 8.20749 9.49549 8.32721 9.61521C8.44694 9.73494 8.51421 9.89733 8.51421 10.0667C8.51421 10.236 8.44694 10.3984 8.32721 10.5181C8.20749 10.6378 8.0451 10.7051 7.87577 10.7051Z" fill="url(#paint5_linear_111_38380)"/>
<path d="M7.87577 34.7051H4.06079C3.89147 34.7051 3.72908 34.6378 3.60936 34.5181C3.48963 34.3984 3.42236 34.236 3.42236 34.0667C3.42236 33.8973 3.48963 33.7349 3.60936 33.6152C3.72908 33.4955 3.89147 33.4282 4.06079 33.4282H7.87577C8.0451 33.4282 8.20749 33.4955 8.32721 33.6152C8.44694 33.7349 8.51421 33.8973 8.51421 34.0667C8.51421 34.236 8.44694 34.3984 8.32721 34.5181C8.20749 34.6378 8.0451 34.7051 7.87577 34.7051Z" fill="url(#paint6_linear_111_38380)"/>
<path d="M31.0824 5.34222C30.9243 4.83297 31.1579 4.29485 31.6142 4.04834C28.0908 5.31116 22.722 6.11791 16.7068 6.11791C16.6807 6.11791 16.6546 6.11767 16.6284 6.11759V38.0359C16.6546 38.0359 16.6807 38.0356 16.7068 38.0356C21.9225 38.0356 26.7132 38.7362 30.4858 39.9066C31.8037 40.3155 33.1407 39.334 33.1407 37.9541C33.1407 37.0918 32.5994 36.3239 31.7888 36.0296L31.7645 36.0208C31.2104 35.8203 30.9076 35.221 31.0824 34.6581C34.0692 25.0413 34.0691 14.959 31.0824 5.34222Z" fill="url(#paint7_linear_111_38380)"/>
<path d="M6.58767 14.8338H26.8266C27.7096 14.8338 28.0743 13.7019 27.3573 13.1865C20.9943 8.61102 12.4199 8.61102 6.05684 13.1865C5.33998 13.7019 5.70469 14.8338 6.58767 14.8338Z" fill="url(#paint8_linear_111_38380)"/>
<path d="M26.8265 25.166H6.58765C5.70467 25.166 5.33996 26.2979 6.0569 26.8133C12.42 31.3888 20.9943 31.3888 27.3574 26.8133C28.0742 26.2979 27.7096 25.166 26.8265 25.166Z" fill="url(#paint9_linear_111_38380)"/>
<path d="M5.65341 18.2677C6.28667 18.2677 6.30902 18.7445 6.31655 18.9382C6.33137 19.2065 6.58478 19.2884 6.89772 19.2884C7.29263 19.2884 7.4789 19.1841 7.4789 18.7371C7.4789 17.7909 6.67412 17.2544 5.60863 17.2544C4.63255 17.2544 3.82031 17.7313 3.82031 19.0128V20.9874C3.82031 22.269 4.63247 22.7458 5.60863 22.7458C6.67412 22.7458 7.4789 22.1796 7.4789 21.1886C7.4789 20.7415 7.29263 20.6372 6.89019 20.6372C6.59216 20.6372 6.3389 20.7117 6.31655 20.9875C6.2942 21.2781 6.25694 21.7326 5.66086 21.7326C5.22863 21.7326 4.98274 21.4942 4.98274 20.9875V19.0129C4.98282 18.5061 5.22863 18.2677 5.65341 18.2677Z" fill="url(#paint10_linear_111_38380)"/>
<path d="M11.2271 18.2677C11.4507 18.2677 11.5773 18.0293 11.5773 17.7535C11.5773 17.5151 11.473 17.2544 11.2271 17.2544H8.57454C8.32128 17.2544 8.06787 17.3736 8.06787 17.612V22.3435C8.06787 22.5819 8.3212 22.7011 8.57454 22.7011H11.2271C11.473 22.7011 11.5773 22.4404 11.5773 22.2019C11.5773 21.9262 11.4507 21.6878 11.2271 21.6878H9.23022V20.4211H10.3479C10.5938 20.4211 10.6981 20.1827 10.6981 19.9816C10.6981 19.7432 10.5714 19.527 10.3479 19.527H9.23022V18.2678L11.2271 18.2677Z" fill="url(#paint11_linear_111_38380)"/>
<path d="M16.0027 17.2544C15.5855 17.2544 15.4066 17.299 15.1011 17.8356L14.3337 19.1767L13.5662 17.8356C13.2607 17.299 13.0819 17.2544 12.6647 17.2544C12.3741 17.2544 12.0835 17.4109 12.0835 17.8356V22.3435C12.0835 22.5819 12.3741 22.7011 12.6647 22.7011C12.9553 22.7011 13.2458 22.5819 13.2458 22.3435V19.4748L13.9537 20.7713C14.0431 20.9427 14.1847 20.9874 14.3187 20.9874C14.4604 20.9874 14.6093 20.9353 14.7062 20.7713L15.4215 19.5493V22.3435C15.4215 22.5819 15.712 22.7011 16.0026 22.7011C16.2932 22.7011 16.5838 22.5819 16.5838 22.3435V17.8356C16.5839 17.4109 16.3008 17.2544 16.0027 17.2544Z" fill="url(#paint12_linear_111_38380)"/>
<path d="M20.548 18.2677C20.7715 18.2677 20.8982 18.0293 20.8982 17.7535C20.8982 17.5151 20.7938 17.2544 20.548 17.2544H17.8954C17.6421 17.2544 17.3887 17.3736 17.3887 17.612V22.3435C17.3887 22.5819 17.642 22.7011 17.8954 22.7011H20.548C20.7938 22.7011 20.8982 22.4404 20.8982 22.2019C20.8982 21.9262 20.7715 21.6878 20.548 21.6878H18.551V20.4211H19.6687C19.9146 20.4211 20.0189 20.1827 20.0189 19.9816C20.0189 19.7432 19.8923 19.527 19.6687 19.527H18.551V18.2678L20.548 18.2677Z" fill="url(#paint13_linear_111_38380)"/>
<path d="M24.6311 17.2544C24.3405 17.2544 24.05 17.3587 24.05 17.6046V20.1379L22.8428 17.8356C22.5598 17.2916 22.4033 17.2545 21.986 17.2545C21.6954 17.2545 21.4048 17.3662 21.4048 17.6121V22.3436C21.4048 22.582 21.6954 22.7012 21.986 22.7012C22.2766 22.7012 22.5671 22.582 22.5671 22.3436V19.8102L23.9828 22.3882C24.1245 22.649 24.3629 22.7011 24.6311 22.7011C24.9217 22.7011 25.2123 22.5819 25.2123 22.3435V17.6046C25.2124 17.3587 24.9217 17.2544 24.6311 17.2544Z" fill="url(#paint14_linear_111_38380)"/>
<path d="M29.2429 17.2544H26.024C25.7781 17.2544 25.6738 17.5226 25.6738 17.7685C25.6738 18.0516 25.8005 18.2975 26.024 18.2975H27.0523V22.3435C27.0523 22.5819 27.3428 22.7011 27.6334 22.7011C27.9239 22.7011 28.2145 22.5819 28.2145 22.3435V18.2975H29.2428C29.4664 18.2975 29.593 18.0516 29.593 17.7685C29.5931 17.5226 29.4888 17.2544 29.2429 17.2544Z" fill="url(#paint15_linear_111_38380)"/>
<path d="M15.1002 30.727L10.3075 37.9889C9.73844 38.851 10.3567 39.9999 11.3897 39.9999H32.4531C33.4861 39.9999 34.1043 38.851 33.5353 37.9889L28.7425 30.727C25.5121 25.8325 18.3306 25.8325 15.1002 30.727Z" fill="url(#paint16_linear_111_38380)"/>
<path d="M28.7422 30.7274C25.5665 25.9158 18.5726 25.8345 15.2676 30.4832V40.0002H32.4528C33.4857 40.0002 34.104 38.8513 33.535 37.9892L28.7422 30.7274Z" fill="url(#paint17_linear_111_38380)"/>
<path d="M10.3075 37.9893C9.73844 38.8514 10.3567 40.0003 11.3897 40.0003H32.4531C33.4861 40.0003 34.1043 38.8514 33.5353 37.9893L31.4528 34.834H12.39L10.3075 37.9893Z" fill="url(#paint18_linear_111_38380)"/>
<path d="M24.6049 37.9528L24.1461 38.6479C23.7636 39.2275 24.1792 39.9999 24.8737 39.9999H39.0351C39.7295 39.9999 40.1452 39.2275 39.7627 38.6479L39.3038 37.9528C35.8232 32.6791 28.0855 32.6791 24.6049 37.9528Z" fill="url(#paint19_linear_111_38380)"/>
<path d="M24.6049 37.953L24.1461 38.6482C23.7636 39.2278 24.1792 40.0002 24.8737 40.0002H39.0351C39.7295 40.0002 40.1452 39.2278 39.7627 38.6482L39.3038 37.953C38.3633 36.528 37.1117 35.4889 35.7175 34.834H28.1912C26.797 35.4889 25.5454 36.528 24.6049 37.953Z" fill="url(#paint20_linear_111_38380)"/>
<path d="M21.1303 30.873C21.7476 30.873 22.248 30.3726 22.248 29.7553C22.248 29.1381 21.7476 28.6377 21.1303 28.6377C20.5131 28.6377 20.0127 29.1381 20.0127 29.7553C20.0127 30.3726 20.5131 30.873 21.1303 30.873Z" fill="url(#paint21_linear_111_38380)"/>
<path d="M18.7778 38.4809C19.3951 38.4809 19.8955 37.9805 19.8955 37.3633C19.8955 36.746 19.3951 36.2456 18.7778 36.2456C18.1605 36.2456 17.6602 36.746 17.6602 37.3633C17.6602 37.9805 18.1605 38.4809 18.7778 38.4809Z" fill="url(#paint22_linear_111_38380)"/>
<path d="M23.9146 32.2457C24.3369 32.2457 24.6793 31.9033 24.6793 31.481C24.6793 31.0587 24.3369 30.7163 23.9146 30.7163C23.4923 30.7163 23.1499 31.0587 23.1499 31.481C23.1499 31.9033 23.4923 32.2457 23.9146 32.2457Z" fill="url(#paint23_linear_111_38380)"/>
<path d="M14.6402 35.9122C15.0625 35.9122 15.4049 35.5699 15.4049 35.1475C15.4049 34.7252 15.0625 34.3828 14.6402 34.3828C14.2179 34.3828 13.8755 34.7252 13.8755 35.1475C13.8755 35.5699 14.2179 35.9122 14.6402 35.9122Z" fill="url(#paint24_linear_111_38380)"/>
<path d="M19.6794 33.8339C19.9826 33.8339 20.2284 33.5881 20.2284 33.2849C20.2284 32.9816 19.9826 32.7358 19.6794 32.7358C19.3762 32.7358 19.1304 32.9816 19.1304 33.2849C19.1304 33.5881 19.3762 33.8339 19.6794 33.8339Z" fill="url(#paint25_linear_111_38380)"/>
<path d="M24.0324 36.5399C24.3356 36.5399 24.5814 36.2941 24.5814 35.9909C24.5814 35.6877 24.3356 35.4419 24.0324 35.4419C23.7292 35.4419 23.4834 35.6877 23.4834 35.9909C23.4834 36.2941 23.7292 36.5399 24.0324 36.5399Z" fill="url(#paint26_linear_111_38380)"/>
<path d="M33.6797 38.7553C34.2969 38.7553 34.7973 38.2549 34.7973 37.6377C34.7973 37.0204 34.2969 36.52 33.6797 36.52C33.0624 36.52 32.562 37.0204 32.562 37.6377C32.562 38.2549 33.0624 38.7553 33.6797 38.7553Z" fill="url(#paint27_linear_111_38380)"/>
<path d="M28.6011 38.2653C29.0235 38.2653 29.3658 37.9229 29.3658 37.5005C29.3658 37.0782 29.0235 36.7358 28.6011 36.7358C28.1788 36.7358 27.8364 37.0782 27.8364 37.5005C27.8364 37.9229 28.1788 38.2653 28.6011 38.2653Z" fill="url(#paint28_linear_111_38380)"/>
<path d="M31.8952 35.8143C32.1984 35.8143 32.4442 35.5685 32.4442 35.2653C32.4442 34.9621 32.1984 34.7163 31.8952 34.7163C31.592 34.7163 31.3462 34.9621 31.3462 35.2653C31.3462 35.5685 31.592 35.8143 31.8952 35.8143Z" fill="url(#paint29_linear_111_38380)"/>
<path d="M36.7775 38.3046C37.0808 38.3046 37.3266 38.0588 37.3266 37.7556C37.3266 37.4523 37.0808 37.2065 36.7775 37.2065C36.4743 37.2065 36.2285 37.4523 36.2285 37.7556C36.2285 38.0588 36.4743 38.3046 36.7775 38.3046Z" fill="url(#paint30_linear_111_38380)"/>
</g>
<defs>
<linearGradient id="paint0_linear_111_38380" x1="3.20588" y1="7.42365" x2="20.3815" y2="23.4229" gradientUnits="userSpaceOnUse">
<stop stop-color="#FFDFCF"/>
<stop offset="1" stop-color="#FFA78F"/>
</linearGradient>
<linearGradient id="paint1_linear_111_38380" x1="22.9726" y1="18.886" x2="32.3839" y2="20.18" gradientUnits="userSpaceOnUse">
<stop stop-color="#F89580" stop-opacity="0"/>
<stop offset="0.997" stop-color="#C5715A"/>
</linearGradient>
<linearGradient id="paint2_linear_111_38380" x1="16.7069" y1="34.1209" x2="16.7069" y2="38.2384" gradientUnits="userSpaceOnUse">
<stop stop-color="#F89580" stop-opacity="0"/>
<stop offset="0.997" stop-color="#C5715A"/>
</linearGradient>
<linearGradient id="paint3_linear_111_38380" x1="9.52525" y1="-5.16674" x2="15.0939" y2="12.1666" gradientUnits="userSpaceOnUse">
<stop stop-color="#F89580" stop-opacity="0"/>
<stop offset="0.997" stop-color="#C5715A"/>
</linearGradient>
<linearGradient id="paint4_linear_111_38380" x1="3.98793" y1="-3.38792" x2="9.55656" y2="13.9454" gradientUnits="userSpaceOnUse">
<stop stop-color="#F89580" stop-opacity="0"/>
<stop offset="0.997" stop-color="#C5715A"/>
</linearGradient>
<linearGradient id="paint5_linear_111_38380" x1="1.86495" y1="-2.70574" x2="7.43358" y2="14.6276" gradientUnits="userSpaceOnUse">
<stop stop-color="#F89580" stop-opacity="0"/>
<stop offset="0.997" stop-color="#C5715A"/>
</linearGradient>
<linearGradient id="paint6_linear_111_38380" x1="-0.0203822" y1="15.4259" x2="5.54825" y2="32.7592" gradientUnits="userSpaceOnUse">
<stop stop-color="#F89580" stop-opacity="0"/>
<stop offset="0.997" stop-color="#C5715A"/>
</linearGradient>
<linearGradient id="paint7_linear_111_38380" x1="30.901" y1="14.8987" x2="38.5476" y2="5.36975" gradientUnits="userSpaceOnUse">
<stop stop-color="#F89580" stop-opacity="0"/>
<stop offset="0.997" stop-color="#C5715A"/>
</linearGradient>
<linearGradient id="paint8_linear_111_38380" x1="12.5673" y1="10.0225" x2="35.272" y2="31.4331" gradientUnits="userSpaceOnUse">
<stop stop-color="#FD4755"/>
<stop offset="1" stop-color="#A72B2B"/>
</linearGradient>
<linearGradient id="paint9_linear_111_38380" x1="6.50427" y1="16.4521" x2="29.209" y2="37.8627" gradientUnits="userSpaceOnUse">
<stop stop-color="#FD4755"/>
<stop offset="1" stop-color="#A72B2B"/>
</linearGradient>
<linearGradient id="paint10_linear_111_38380" x1="5.64972" y1="17.2982" x2="5.64972" y2="23.0735" gradientUnits="userSpaceOnUse">
<stop stop-color="#5A5A5A"/>
<stop offset="1" stop-color="#444444"/>
</linearGradient>
<linearGradient id="paint11_linear_111_38380" x1="9.82254" y1="17.2983" x2="9.82254" y2="23.0735" gradientUnits="userSpaceOnUse">
<stop stop-color="#5A5A5A"/>
<stop offset="1" stop-color="#444444"/>
</linearGradient>
<linearGradient id="paint12_linear_111_38380" x1="14.3336" y1="17.2983" x2="14.3336" y2="23.0735" gradientUnits="userSpaceOnUse">
<stop stop-color="#5A5A5A"/>
<stop offset="1" stop-color="#444444"/>
</linearGradient>
<linearGradient id="paint13_linear_111_38380" x1="19.1434" y1="17.2983" x2="19.1434" y2="23.0735" gradientUnits="userSpaceOnUse">
<stop stop-color="#5A5A5A"/>
<stop offset="1" stop-color="#444444"/>
</linearGradient>
<linearGradient id="paint14_linear_111_38380" x1="23.3086" y1="17.2983" x2="23.3086" y2="23.0735" gradientUnits="userSpaceOnUse">
<stop stop-color="#5A5A5A"/>
<stop offset="1" stop-color="#444444"/>
</linearGradient>
<linearGradient id="paint15_linear_111_38380" x1="27.6335" y1="17.2983" x2="27.6335" y2="23.0735" gradientUnits="userSpaceOnUse">
<stop stop-color="#5A5A5A"/>
<stop offset="1" stop-color="#444444"/>
</linearGradient>
<linearGradient id="paint16_linear_111_38380" x1="18.2897" y1="33.2193" x2="24.1717" y2="42.0425" gradientUnits="userSpaceOnUse">
<stop stop-color="#9E9797"/>
<stop offset="1" stop-color="#766E6E"/>
</linearGradient>
<linearGradient id="paint17_linear_111_38380" x1="21.064" y1="34.3435" x2="26.2797" y2="38.8533" gradientUnits="userSpaceOnUse">
<stop stop-color="#766E6E" stop-opacity="0"/>
<stop offset="0.352" stop-color="#686363" stop-opacity="0.353"/>
<stop offset="1" stop-color="#444444"/>
</linearGradient>
<linearGradient id="paint18_linear_111_38380" x1="21.9214" y1="36.7948" x2="21.9214" y2="40.5205" gradientUnits="userSpaceOnUse">
<stop stop-color="#766E6E" stop-opacity="0"/>
<stop offset="1" stop-color="#444444"/>
</linearGradient>
<linearGradient id="paint19_linear_111_38380" x1="30.1996" y1="34.8704" x2="32.3173" y2="40.0077" gradientUnits="userSpaceOnUse">
<stop stop-color="#9E9797"/>
<stop offset="1" stop-color="#766E6E"/>
</linearGradient>
<linearGradient id="paint20_linear_111_38380" x1="31.9544" y1="37.3046" x2="31.9544" y2="39.9332" gradientUnits="userSpaceOnUse">
<stop stop-color="#766E6E" stop-opacity="0"/>
<stop offset="1" stop-color="#444444"/>
</linearGradient>
<linearGradient id="paint21_linear_111_38380" x1="19.8754" y1="28.5004" x2="23.3474" y2="31.9724" gradientUnits="userSpaceOnUse">
<stop stop-color="#766E6E" stop-opacity="0"/>
<stop offset="0.352" stop-color="#686363" stop-opacity="0.353"/>
<stop offset="1" stop-color="#444444"/>
</linearGradient>
<linearGradient id="paint22_linear_111_38380" x1="17.5229" y1="36.1084" x2="20.9949" y2="39.5803" gradientUnits="userSpaceOnUse">
<stop stop-color="#766E6E" stop-opacity="0"/>
<stop offset="0.352" stop-color="#686363" stop-opacity="0.353"/>
<stop offset="1" stop-color="#444444"/>
</linearGradient>
<linearGradient id="paint23_linear_111_38380" x1="23.056" y1="30.6223" x2="25.4315" y2="32.998" gradientUnits="userSpaceOnUse">
<stop stop-color="#766E6E" stop-opacity="0"/>
<stop offset="0.352" stop-color="#686363" stop-opacity="0.353"/>
<stop offset="1" stop-color="#444444"/>
</linearGradient>
<linearGradient id="paint24_linear_111_38380" x1="13.7816" y1="34.2889" x2="16.1571" y2="36.6645" gradientUnits="userSpaceOnUse">
<stop stop-color="#766E6E" stop-opacity="0"/>
<stop offset="0.352" stop-color="#686363" stop-opacity="0.353"/>
<stop offset="1" stop-color="#444444"/>
</linearGradient>
<linearGradient id="paint25_linear_111_38380" x1="19.063" y1="32.6684" x2="20.7685" y2="34.374" gradientUnits="userSpaceOnUse">
<stop stop-color="#766E6E" stop-opacity="0"/>
<stop offset="0.352" stop-color="#686363" stop-opacity="0.353"/>
<stop offset="1" stop-color="#444444"/>
</linearGradient>
<linearGradient id="paint26_linear_111_38380" x1="23.416" y1="35.3744" x2="25.1215" y2="37.08" gradientUnits="userSpaceOnUse">
<stop stop-color="#766E6E" stop-opacity="0"/>
<stop offset="0.352" stop-color="#686363" stop-opacity="0.353"/>
<stop offset="1" stop-color="#444444"/>
</linearGradient>
<linearGradient id="paint27_linear_111_38380" x1="32.4248" y1="36.3828" x2="35.8968" y2="39.8547" gradientUnits="userSpaceOnUse">
<stop stop-color="#766E6E" stop-opacity="0"/>
<stop offset="0.352" stop-color="#686363" stop-opacity="0.353"/>
<stop offset="1" stop-color="#444444"/>
</linearGradient>
<linearGradient id="paint28_linear_111_38380" x1="27.7425" y1="36.6419" x2="30.1181" y2="39.0175" gradientUnits="userSpaceOnUse">
<stop stop-color="#766E6E" stop-opacity="0"/>
<stop offset="0.352" stop-color="#686363" stop-opacity="0.353"/>
<stop offset="1" stop-color="#444444"/>
</linearGradient>
<linearGradient id="paint29_linear_111_38380" x1="31.2788" y1="34.6489" x2="32.9843" y2="36.3544" gradientUnits="userSpaceOnUse">
<stop stop-color="#766E6E" stop-opacity="0"/>
<stop offset="0.352" stop-color="#686363" stop-opacity="0.353"/>
<stop offset="1" stop-color="#444444"/>
</linearGradient>
<linearGradient id="paint30_linear_111_38380" x1="36.1611" y1="37.1391" x2="37.8666" y2="38.8447" gradientUnits="userSpaceOnUse">
<stop stop-color="#766E6E" stop-opacity="0"/>
<stop offset="0.352" stop-color="#686363" stop-opacity="0.353"/>
<stop offset="1" stop-color="#444444"/>
</linearGradient>
<clipPath id="clip0_111_38380">
<rect width="40" height="40" fill="white"/>
</clipPath>
</defs>
</svg>
